<svg xmlns="http://www.w3.org/2000/svg" xmlns:xlink="http://www.w3.org/1999/xlink" width="175.697" height="23.285" viewBox="0 0 175.697 23.285">
  <defs>
    <linearGradient id="linear-gradient" x1="1.033" y1="0.548" x2="0.054" y2="0.419" gradientUnits="objectBoundingBox">
      <stop offset="0" stop-color="#fff"/>
      <stop offset="0.559" stop-color="#fff"/>
      <stop offset="0.626" stop-color="#fdfcfb"/>
      <stop offset="0.683" stop-color="#f7f4f1"/>
      <stop offset="0.737" stop-color="#eee6df"/>
      <stop offset="0.787" stop-color="#e1d2c6"/>
      <stop offset="0.837" stop-color="#d1b8a6"/>
      <stop offset="0.885" stop-color="#bd997f"/>
      <stop offset="0.932" stop-color="#a57451"/>
      <stop offset="0.978" stop-color="#894b1c"/>
      <stop offset="1" stop-color="#7b3400"/>
    </linearGradient>
    <linearGradient id="linear-gradient-3" x1="0.495" y1="0.964" x2="0.372" y2="0.074" gradientUnits="objectBoundingBox">
      <stop offset="0" stop-color="#fff"/>
      <stop offset="0.559" stop-color="#fff"/>
      <stop offset="0.626" stop-color="#fdfbfb"/>
      <stop offset="0.683" stop-color="#f7f1f1"/>
      <stop offset="0.736" stop-color="#eedfdf"/>
      <stop offset="0.787" stop-color="#e1c6c6"/>
      <stop offset="0.837" stop-color="#d0a6a6"/>
      <stop offset="0.885" stop-color="#bc7f7f"/>
      <stop offset="0.932" stop-color="#a35151"/>
      <stop offset="0.978" stop-color="#881c1c"/>
      <stop offset="1" stop-color="#790000"/>
    </linearGradient>
    <linearGradient id="linear-gradient-5" x1="0.307" y1="0.989" x2="0.543" y2="0.134" gradientUnits="objectBoundingBox">
      <stop offset="0" stop-color="#fff"/>
      <stop offset="0.559" stop-color="#fff"/>
      <stop offset="0.626" stop-color="#fbfcfc"/>
      <stop offset="0.683" stop-color="#f1f2f4"/>
      <stop offset="0.736" stop-color="#dfe3e7"/>
      <stop offset="0.787" stop-color="#c6cdd5"/>
      <stop offset="0.837" stop-color="#a6b1bd"/>
      <stop offset="0.885" stop-color="#7f8ea0"/>
      <stop offset="0.932" stop-color="#51657e"/>
      <stop offset="0.978" stop-color="#1c3757"/>
      <stop offset="1" stop-color="#001e42"/>
    </linearGradient>
    <linearGradient id="linear-gradient-7" x1="0.424" y1="1.063" x2="0.592" y2="0.152" xlink:href="#linear-gradient-5"/>
    <linearGradient id="linear-gradient-9" x1="0.319" y1="0.949" x2="0.539" y2="0.163" xlink:href="#linear-gradient-5"/>
    <linearGradient id="linear-gradient-11" x1="0.456" y1="1.107" x2="0.394" y2="0.089" xlink:href="#linear-gradient-5"/>
    <linearGradient id="linear-gradient-13" x1="0.516" y1="1.006" x2="0.583" y2="-0.005" gradientUnits="objectBoundingBox">
      <stop offset="0" stop-color="#fff"/>
      <stop offset="0.098" stop-color="#fff"/>
      <stop offset="0.235" stop-color="#fbfcfc"/>
      <stop offset="0.352" stop-color="#f1f2f4"/>
      <stop offset="0.461" stop-color="#dfe3e7"/>
      <stop offset="0.565" stop-color="#c6cdd5"/>
      <stop offset="0.666" stop-color="#a6b1bd"/>
      <stop offset="0.765" stop-color="#7f8ea0"/>
      <stop offset="0.861" stop-color="#51657e"/>
      <stop offset="0.954" stop-color="#1c3757"/>
      <stop offset="1" stop-color="#001e42"/>
    </linearGradient>
    <clipPath id="clip-path">
      <rect id="Rectángulo_19" data-name="Rectángulo 19" width="175.697" height="23.285" fill="none"/>
    </clipPath>
    <clipPath id="clip-path-3">
      <rect id="Rectángulo_2" data-name="Rectángulo 2" width="14.008" height="11.524" fill="url(#linear-gradient)"/>
    </clipPath>
    <clipPath id="clip-path-4">
      <path id="Trazado_6" data-name="Trazado 6" d="M623.432.778l-7.772,8.2,3.118,3.326L629.668.778Z" transform="translate(-615.66 -0.778)" fill="url(#linear-gradient)"/>
    </clipPath>
    <clipPath id="clip-path-6">
      <path id="Trazado_8" data-name="Trazado 8" d="M623.432,56.305l-7.772-8.2,3.118-3.326,10.89,11.524Z" transform="translate(-615.66 -44.781)" fill="url(#linear-gradient-3)"/>
    </clipPath>
    <clipPath id="clip-path-7">
      <rect id="Rectángulo_6" data-name="Rectángulo 6" width="10.161" height="14.864" fill="url(#linear-gradient-5)"/>
    </clipPath>
    <clipPath id="clip-path-8">
      <path id="Trazado_9" data-name="Trazado 9" d="M505.8,15.642h5.528L503.924.778l-2.762,5.576Z" transform="translate(-501.162 -0.778)" fill="url(#linear-gradient-5)"/>
    </clipPath>
    <clipPath id="clip-path-10">
      <path id="Trazado_11" data-name="Trazado 11" d="M143.5,15.642h5.528L141.633.778l-2.762,5.576Z" transform="translate(-138.871 -0.778)" fill="url(#linear-gradient-7)"/>
    </clipPath>
    <clipPath id="clip-path-12">
      <path id="Trazado_13" data-name="Trazado 13" d="M314.325,15.642h5.528L312.454.778l-2.762,5.576Z" transform="translate(-309.692 -0.778)" fill="url(#linear-gradient-9)"/>
    </clipPath>
    <clipPath id="clip-path-13">
      <rect id="Rectángulo_12" data-name="Rectángulo 12" width="5.072" height="18.485" fill="url(#linear-gradient-11)"/>
    </clipPath>
    <clipPath id="clip-path-14">
      <path id="Trazado_14" data-name="Trazado 14" d="M421.81,19.263h5.072V.778L421.81,6.152Z" transform="translate(-421.81 -0.778)" fill="url(#linear-gradient-11)"/>
    </clipPath>
    <clipPath id="clip-path-15">
      <rect id="Rectángulo_15" data-name="Rectángulo 15" width="5.176" height="12.078" fill="url(#linear-gradient-13)"/>
    </clipPath>
    <clipPath id="clip-path-16">
      <path id="Trazado_16" data-name="Trazado 16" d="M208.365,20.753h5.176v5.708l-5.176,6.37Z" transform="translate(-208.365 -20.753)" fill="url(#linear-gradient-13)"/>
    </clipPath>
    <clipPath id="clip-path-17">
      <rect id="Rectángulo_17" data-name="Rectángulo 17" width="8.604" height="4.369" fill="none"/>
    </clipPath>
    <clipPath id="clip-path-18">
      <path id="Trazado_17" data-name="Trazado 17" d="M19.982,3.572V.017a46.566,46.566,0,0,1,8.067.423l.537,3.928s-2.863-1.2-8.6-.8" transform="translate(-19.982 0)" fill="none"/>
    </clipPath>
    <linearGradient id="linear-gradient-22" x1="-1.317" y1="2.858" x2="-1.267" y2="2.858" gradientUnits="objectBoundingBox">
      <stop offset="0" stop-color="#001e42"/>
      <stop offset="0.909" stop-color="#fff"/>
      <stop offset="1" stop-color="#fff"/>
    </linearGradient>
  </defs>
  <g id="Grupo_43" data-name="Grupo 43" clip-path="url(#clip-path)">
    <g id="Grupo_42" data-name="Grupo 42" transform="translate(0 0)">
      <g id="Grupo_41" data-name="Grupo 41" clip-path="url(#clip-path)">
        <path id="Trazado_1" data-name="Trazado 1" d="M24.038,7.913a9.653,9.653,0,0,0-1.8-3.061A11.3,11.3,0,0,0,19.3,2.478,16.213,16.213,0,0,0,15.248.883,16.893,16.893,0,0,0,13.557.528c-.616-.1-1.25-.182-1.908-.251S10.318.156,9.626.121,8.252.067,7.582.067H0v23.2H5.248V3.621H7.56a30.061,30.061,0,0,1,3.362.173,14.908,14.908,0,0,1,2.719.555,10.61,10.61,0,0,1,2.347,1.058,7,7,0,0,1,1.765,1.536,6.432,6.432,0,0,1,1.114,2.036,8.036,8.036,0,0,1,.387,2.566,7.859,7.859,0,0,1-1.178,4.471,7.3,7.3,0,0,1-3.471,2.67,15.5,15.5,0,0,1-4.252.9v3.557c.577-.042,1.129-.093,1.661-.158a24.084,24.084,0,0,0,4.134-.831,14.756,14.756,0,0,0,3.779-1.691,10.542,10.542,0,0,0,2.645-2.384,9.48,9.48,0,0,0,1.565-2.99,11.663,11.663,0,0,0,.513-3.51,10.718,10.718,0,0,0-.611-3.665" transform="translate(0 -0.049)" fill="#023f87"/>
        <path id="Trazado_2" data-name="Trazado 2" d="M463.8.778h-5.564l-11.488,23.08h5.564l8.727-17.5,4.844,9.71,1.8,3.628,2.081,4.166h5.524Z" transform="translate(-329.42 -0.574)" fill="#023f87"/>
        <path id="Trazado_3" data-name="Trazado 3" d="M357.151.778h-1.163l-7.813,8.2-7.69-8.2h-6.363l5.073,5.374,8.978,9.511,8.979-9.511V23.858h5.072V.778Z" transform="translate(-246.373 -0.574)" fill="#023f87"/>
        <path id="Trazado_4" data-name="Trazado 4" d="M579.209,12.3l-3.161,3.359-7.773,8.2H562l10.891-11.523L562,.778h6.363l7.73,8.2Z" transform="translate(-414.403 -0.574)" fill="#023f87"/>
        <path id="Trazado_5" data-name="Trazado 5" d="M623.431.778l-7.772,8.2,3.119,3.326L629.668.778Z" transform="translate(-453.971 -0.574)" fill="#ffc10e"/>
        <g id="Grupo_5" data-name="Grupo 5" transform="translate(161.688 0.204)" opacity="0.8" style="mix-blend-mode: multiply;isolation: isolate">
          <g id="Grupo_4" data-name="Grupo 4">
            <g id="Grupo_3" data-name="Grupo 3" clip-path="url(#clip-path-3)">
              <g id="Grupo_2" data-name="Grupo 2" transform="translate(0 0)">
                <g id="Grupo_1" data-name="Grupo 1" clip-path="url(#clip-path-4)">
                  <rect id="Rectángulo_1" data-name="Rectángulo 1" width="17.679" height="18.13" transform="translate(-5.572 7.23) rotate(-52.38)" fill="url(#linear-gradient)"/>
                </g>
              </g>
            </g>
          </g>
        </g>
        <path id="Trazado_7" data-name="Trazado 7" d="M623.431,56.305l-7.772-8.2,3.119-3.326,10.89,11.524Z" transform="translate(-453.971 -33.02)" fill="#da2128"/>
        <g id="Grupo_10" data-name="Grupo 10" transform="translate(161.688 11.761)" opacity="0.9" style="mix-blend-mode: multiply;isolation: isolate">
          <g id="Grupo_9" data-name="Grupo 9">
            <g id="Grupo_8" data-name="Grupo 8" clip-path="url(#clip-path-3)">
              <g id="Grupo_7" data-name="Grupo 7" transform="translate(0 0)">
                <g id="Grupo_6" data-name="Grupo 6" clip-path="url(#clip-path-6)">
                  <rect id="Rectángulo_3" data-name="Rectángulo 3" width="18.13" height="17.679" transform="translate(-5.572 4.294) rotate(-37.62)" fill="url(#linear-gradient-3)"/>
                </g>
              </g>
            </g>
          </g>
        </g>
        <g id="Grupo_15" data-name="Grupo 15" transform="translate(131.618 0.204)" opacity="0.5" style="mix-blend-mode: multiply;isolation: isolate">
          <g id="Grupo_14" data-name="Grupo 14">
            <g id="Grupo_13" data-name="Grupo 13" clip-path="url(#clip-path-7)">
              <g id="Grupo_12" data-name="Grupo 12" transform="translate(0 0)">
                <g id="Grupo_11" data-name="Grupo 11" clip-path="url(#clip-path-8)">
                  <rect id="Rectángulo_5" data-name="Rectángulo 5" width="17.704" height="17.686" transform="matrix(0.705, -0.709, 0.709, 0.705, -7.432, 7.471)" fill="url(#linear-gradient-5)"/>
                </g>
              </g>
            </g>
          </g>
        </g>
        <path id="Trazado_10" data-name="Trazado 10" d="M101.509.778H95.945L84.456,23.858H90.02l8.727-17.5,4.844,9.71,1.8,3.628,2.081,4.166H113Z" transform="translate(-62.276 -0.574)" fill="#023f87"/>
        <g id="Grupo_20" data-name="Grupo 20" transform="translate(36.471 0.204)" opacity="0.5" style="mix-blend-mode: multiply;isolation: isolate">
          <g id="Grupo_19" data-name="Grupo 19">
            <g id="Grupo_18" data-name="Grupo 18" clip-path="url(#clip-path-7)">
              <g id="Grupo_17" data-name="Grupo 17" transform="translate(0 0)">
                <g id="Grupo_16" data-name="Grupo 16" clip-path="url(#clip-path-10)">
                  <rect id="Rectángulo_7" data-name="Rectángulo 7" width="17.704" height="17.686" transform="translate(-7.432 7.471) rotate(-45.151)" fill="url(#linear-gradient-7)"/>
                </g>
              </g>
            </g>
          </g>
        </g>
        <path id="Trazado_12" data-name="Trazado 12" d="M272.331.778h-5.565l-11.488,23.08h5.564l8.727-17.5,4.844,9.71,1.8,3.628,2.081,4.166h5.524Z" transform="translate(-188.235 -0.574)" fill="#023f87"/>
        <g id="Grupo_25" data-name="Grupo 25" transform="translate(81.333 0.204)" opacity="0.5" style="mix-blend-mode: multiply;isolation: isolate">
          <g id="Grupo_24" data-name="Grupo 24">
            <g id="Grupo_23" data-name="Grupo 23" clip-path="url(#clip-path-7)">
              <g id="Grupo_22" data-name="Grupo 22" transform="translate(0 0)">
                <g id="Grupo_21" data-name="Grupo 21" clip-path="url(#clip-path-12)">
                  <rect id="Rectángulo_9" data-name="Rectángulo 9" width="17.704" height="17.686" transform="translate(-7.432 7.471) rotate(-45.152)" fill="url(#linear-gradient-9)"/>
                </g>
              </g>
            </g>
          </g>
        </g>
        <g id="Grupo_30" data-name="Grupo 30" transform="translate(110.778 0.204)" opacity="0.5" style="mix-blend-mode: multiply;isolation: isolate">
          <g id="Grupo_29" data-name="Grupo 29">
            <g id="Grupo_28" data-name="Grupo 28" clip-path="url(#clip-path-13)">
              <g id="Grupo_27" data-name="Grupo 27" transform="translate(0 0)">
                <g id="Grupo_26" data-name="Grupo 26" clip-path="url(#clip-path-14)">
                  <rect id="Rectángulo_11" data-name="Rectángulo 11" width="5.072" height="18.485" fill="url(#linear-gradient-11)"/>
                </g>
              </g>
            </g>
          </g>
        </g>
        <rect id="Rectángulo_13" data-name="Rectángulo 13" width="5.176" height="22.924" transform="translate(54.722 0.274)" fill="#023f87"/>
        <path id="Trazado_15" data-name="Trazado 15" d="M192.991,1.043V6.22H168.285l-2.832-5.176Z" transform="translate(-122.001 -0.769)" fill="#023f87"/>
        <g id="Grupo_35" data-name="Grupo 35" transform="translate(54.722 5.45)" opacity="0.5" style="mix-blend-mode: multiply;isolation: isolate">
          <g id="Grupo_34" data-name="Grupo 34">
            <g id="Grupo_33" data-name="Grupo 33" clip-path="url(#clip-path-15)">
              <g id="Grupo_32" data-name="Grupo 32" transform="translate(0 0)">
                <g id="Grupo_31" data-name="Grupo 31" clip-path="url(#clip-path-16)">
                  <rect id="Rectángulo_14" data-name="Rectángulo 14" width="5.497" height="12.213" transform="translate(-0.323 0.009) rotate(-1.532)" fill="url(#linear-gradient-13)"/>
                </g>
              </g>
            </g>
          </g>
        </g>
        <g id="Grupo_40" data-name="Grupo 40" transform="translate(5.248 0)" opacity="0.5" style="mix-blend-mode: multiply;isolation: isolate">
          <g id="Grupo_39" data-name="Grupo 39">
            <g id="Grupo_38" data-name="Grupo 38" clip-path="url(#clip-path-17)">
              <g id="Grupo_37" data-name="Grupo 37" transform="translate(0 0)">
                <g id="Grupo_36" data-name="Grupo 36" clip-path="url(#clip-path-18)">
                  <rect id="Rectángulo_16" data-name="Rectángulo 16" width="5.256" height="8.974" transform="matrix(0.09, -0.996, 0.996, 0.09, -0.403, 4.332)" fill="url(#linear-gradient-22)"/>
                </g>
              </g>
            </g>
          </g>
        </g>
      </g>
    </g>
  </g>
</svg>
